/* XPM */
static char * collect_xpm[] = {
"48 48 338 2",
"  	c None",
". 	c #DE4B0D",
"+ 	c #EB5112",
"@ 	c #D44407",
"# 	c #C14207",
"$ 	c #BF4106",
"% 	c #D74709",
"& 	c #F25415",
"* 	c #D44508",
"= 	c #C04106",
"- 	c #EE5113",
"; 	c #D8470A",
"> 	c #C84307",
", 	c #E94F10",
"' 	c #E14B0D",
") 	c #D14507",
"! 	c #9A3405",
"~ 	c #E24B0D",
"{ 	c #E84F10",
"] 	c #D44507",
"^ 	c #A43805",
"/ 	c #BD4006",
"( 	c #B54410",
"_ 	c #DC490A",
": 	c #EF5214",
"< 	c #D34407",
"[ 	c #8C2F05",
"} 	c #5C2004",
"| 	c #050505",
"1 	c #652304",
"2 	c #B53E06",
"3 	c #5D2003",
"4 	c #7A2904",
"5 	c #8A5238",
"6 	c #D94809",
"7 	c #C74206",
"8 	c #7B3414",
"9 	c #402012",
"0 	c #160D08",
"a 	c #0A0A0A",
"b 	c #1E1F1F",
"c 	c #1B1B1B",
"d 	c #0D0400",
"e 	c #2C1A12",
"f 	c #1C1C1B",
"g 	c #210E06",
"h 	c #9B3505",
"i 	c #BA3F06",
"j 	c #A94619",
"k 	c #6D6D6D",
"l 	c #EA5011",
"m 	c #E14C0E",
"n 	c #64420E",
"o 	c #252A0B",
"p 	c #1E1A11",
"q 	c #1A1610",
"r 	c #13130D",
"s 	c #111211",
"t 	c #000000",
"u 	c #141414",
"v 	c #111111",
"w 	c #040404",
"x 	c #0E0E0E",
"y 	c #0D0E0F",
"z 	c #1B0D07",
"A 	c #832F08",
"B 	c #765A4D",
"C 	c #7E7E7E",
"D 	c #E64E10",
"E 	c #C1410C",
"F 	c #527433",
"G 	c #5FB04A",
"H 	c #76A24A",
"I 	c #856541",
"J 	c #7E4241",
"K 	c #4B2F3F",
"L 	c #312B2A",
"M 	c #2A2A29",
"N 	c #0C0C0C",
"O 	c #252525",
"P 	c #252827",
"Q 	c #090004",
"R 	c #211212",
"S 	c #1A1816",
"T 	c #181817",
"U 	c #6A2A0C",
"V 	c #924C2C",
"W 	c #717171",
"X 	c #8F8F8F",
"Y 	c #682303",
"Z 	c #6A2303",
"` 	c #DF490C",
" .	c #0B1900",
"..	c #5DD455",
"+.	c #73C151",
"@.	c #939A52",
"#.	c #B76550",
"$.	c #B05673",
"%.	c #8E58A1",
"&.	c #412F46",
"*.	c #0D0B0A",
"=.	c #010101",
"-.	c #030403",
";.	c #120009",
">.	c #3E522E",
",.	c #50662F",
"'.	c #424624",
").	c #362319",
"!.	c #32151C",
"~.	c #762910",
"{.	c #6F625B",
"].	c #848484",
"^.	c #8F8079",
"/.	c #D84709",
"(.	c #CA4209",
"_.	c #060D04",
":.	c #6ADA55",
"<.	c #85AA51",
"[.	c #A57A51",
"}.	c #B4525B",
"|.	c #97518E",
"1.	c #7A51BD",
"2.	c #6E63CA",
"3.	c #26180F",
"4.	c #020202",
"5.	c #1A191A",
"6.	c #2F4C27",
"7.	c #62C653",
"8.	c #7BC455",
"9.	c #9E9A55",
"0.	c #B96355",
"a.	c #A65777",
"b.	c #7A5575",
"c.	c #3D0B1A",
"d.	c #895136",
"e.	c #777777",
"f.	c #949494",
"g.	c #6E3114",
"h.	c #6B2404",
"i.	c #D74607",
"j.	c #DD4A0B",
"k.	c #B63C06",
"l.	c #303410",
"m.	c #7DC55A",
"n.	c #988E50",
"o.	c #B16055",
"p.	c #A74F76",
"q.	c #8551AA",
"r.	c #6952D1",
"s.	c #504ECE",
"t.	c #1E1D10",
"u.	c #080708",
"v.	c #3E433D",
"w.	c #327F2E",
"x.	c #6AD252",
"y.	c #8AA551",
"z.	c #A87451",
"A.	c #B54F5E",
"B.	c #945194",
"C.	c #7451B8",
"D.	c #453463",
"E.	c #B4440F",
"F.	c #6A6A6A",
"G.	c #898989",
"H.	c #856658",
"I.	c #AF531B",
"J.	c #778051",
"K.	c #AC7751",
"L.	c #B45265",
"M.	c #965299",
"N.	c #7653C9",
"O.	c #5F53D1",
"P.	c #463D8C",
"Q.	c #471702",
"R.	c #9F3609",
"S.	c #1B2318",
"T.	c #488A36",
"U.	c #7EBE53",
"V.	c #9C8950",
"W.	c #B25B57",
"X.	c #A3507D",
"Y.	c #8151B3",
"Z.	c #604DC4",
"`.	c #4D3A7A",
" +	c #75594C",
".+	c #7C7C7C",
"++	c #908985",
"@+	c #692303",
"#+	c #DF4A0D",
"$+	c #81391A",
"%+	c #6F3F3E",
"&+	c #7B3B5D",
"*+	c #6A418B",
"=+	c #5B4090",
"-+	c #573A6F",
";+	c #8E3A1F",
">+	c #88340D",
",+	c #626E3E",
"'+	c #95A65C",
")+	c #AE6F52",
"!+	c #AE526B",
"~+	c #8F519D",
"{+	c #7152C8",
"]+	c #534AC5",
"^+	c #623A6B",
"/+	c #9E4922",
"(+	c #6F6F6F",
"_+	c #8E8E8E",
":+	c #7A4C37",
"<+	c #D9470A",
"[+	c #BE4108",
"}+	c #B34014",
"|+	c #A13F2B",
"1+	c #813424",
"2+	c #A53906",
"3+	c #C04107",
"4+	c #BF4107",
"5+	c #873F18",
"6+	c #7E5A45",
"7+	c #9A5153",
"8+	c #934A7C",
"9+	c #7A4FB2",
"0+	c #6A58D5",
"a+	c #493D91",
"b+	c #6B2D2D",
"c+	c #6E6059",
"d+	c #828282",
"e+	c #8E7F78",
"f+	c #DA480A",
"g+	c #B23D06",
"h+	c #9A391B",
"i+	c #8F3C34",
"j+	c #733755",
"k+	c #643F81",
"l+	c #362052",
"m+	c #792D1F",
"n+	c #B73E08",
"o+	c #934D2C",
"p+	c #757575",
"q+	c #929292",
"r+	c #D94708",
"s+	c #686868",
"t+	c #878787",
"u+	c #846558",
"v+	c #E44D0F",
"w+	c #7F5541",
"x+	c #7A7A7A",
"y+	c #8F8784",
"z+	c #DB490B",
"A+	c #6E6E6E",
"B+	c #8C8C8C",
"C+	c #7F5948",
"D+	c #6D5F58",
"E+	c #808080",
"F+	c #8D7E78",
"G+	c #D64608",
"H+	c #CE4407",
"I+	c #737373",
"J+	c #909090",
"K+	c #743E26",
"L+	c #D34507",
"M+	c #70625C",
"N+	c #858585",
"O+	c #836558",
"P+	c #895137",
"Q+	c #797979",
"R+	c #8E8783",
"S+	c #6F3114",
"T+	c #6C6C6C",
"U+	c #7E5948",
"V+	c #7D7D7D",
"W+	c #8B7C76",
"X+	c #D24407",
"Y+	c #733D25",
"Z+	c #494949",
"`+	c #414141",
" @	c #9F7561",
".@	c #875D49",
"+@	c #A04B24",
"@@	c #6F615A",
"#@	c #887268",
"$@	c #4B4B4B",
"%@	c #484848",
"&@	c #3E3E3E",
"*@	c #8D8D8D",
"=@	c #747474",
"-@	c #707070",
";@	c #696969",
">@	c #825844",
",@	c #815643",
"'@	c #9F4A23",
")@	c #884F35",
"!@	c #444444",
"~@	c #ACACAC",
"{@	c #A0A0A0",
"]@	c #979797",
"^@	c #888888",
"/@	c #818181",
"(@	c #7F5441",
"_@	c #9D4821",
":@	c #7D5847",
"<@	c #4A4A4A",
"[@	c #C7C7C7",
"}@	c #C3C3C3",
"|@	c #BEBEBE",
"1@	c #BABABA",
"2@	c #B5B5B5",
"3@	c #AFAFAF",
"4@	c #A8A8A8",
"5@	c #9F9F9F",
"6@	c #646464",
"7@	c #7D533F",
"8@	c #9B471F",
"9@	c #703115",
"0@	c #8B6452",
"a@	c #A38B80",
"b@	c #CECECE",
"c@	c #CDCDCD",
"d@	c #CBCBCB",
"e@	c #5D5D5D",
"f@	c #794229",
"g@	c #98786A",
"h@	c #B1A19A",
"i@	c #CFCFCF",
"j@	c #919191",
"k@	c #83543E",
"l@	c #A58D82",
"m@	c #C0B8B5",
"n@	c #D1D1D1",
"o@	c #D0D0D0",
"p@	c #9B9B9B",
"q@	c #713216",
"r@	c #8D6553",
"s@	c #A3A3A3",
"t@	c #825C4A",
"u@	c #B2A29B",
"v@	c #9E9692",
"w@	c #7E4F39",
"                                                                                                ",
"                                                                                                ",
"                                                                                                ",
"                                                                                                ",
"                                                                                                ",
"                                              . + @ # # $ $ $ $ $ $ $                           ",
"                                            % & * # # # # # # # # # # # # # # # # # # # # =     ",
"                                            - ; > # # # # # # # # # # # # # # # # # # # #       ",
"                                          , ' ) # # # # # # # # # # # # # # # # # # # # !       ",
"                                        ~ { ] # # = ^ / # # # # # # # # # # # # # # # (         ",
"                                      _ : < # / [ } | 1 # 2 3 4 # # # # # # # # # # # 5         ",
"                                    6 : ; 7 8 9 0 a b c d e f g h i # # # # # # # # j k         ",
"                                    l m n o p q r s t u v w x y z A # # # # # # # # B C         ",
"                                  D E F G H I J K L M N O P Q R S T U $ # # # # # V W X Y Z     ",
"                                ` +  ...+.@.#.$.%.&.*.=.-.;.>.,.'.).!.~.# # # # # {.].^.Z       ",
"                              /.: (._.:.<.[.}.|.1.2.3.4.5.6.7.8.9.0.a.b.c.# # # d.e.f.g.h.      ",
"                            i.: j.k.l.m.n.o.p.q.r.s.t.u.v.w.x.y.z.A.B.C.D.# # E.F.G.H.Z         ",
"                            l ' ) # I.J.K.L.M.N.O.P.Q.R.S.T.U.V.W.X.Y.Z.`.# #  +.+++@+          ",
"                          #++ @ # # # $+%+&+*+=+-+;+# # >+,+'+)+!+~+{+]+^+# /+(+_+:+Z           ",
"                        <+& * # # # # # [+}+|+1+2+# 3+# 4+5+6+7+8+9+0+a+b+# c+d+e+Z             ",
"                      f+: ; > # # # # # # # # # # # # # # g+h+i+j+k+l+m+n+o+p+q+g.h.            ",
"                    r++ ' ) # # # # # # # # # # # # # # # # # # # # # # E.s+t+u+Z               ",
"                    v+{ ] # # # # # # # # # # # # # # # # # # # # # # # w+x+y+@+h.              ",
"                  z+: < # # # # # # # # # # # # # # # # # # # # # # # j A+B+C+Z                 ",
"                <+: ; > # # # # # # # # # # # # # # # # # # # # # # # D+E+F+Z                   ",
"              G+: j.H+# # # # # # # # # # # # # # # # # # # # # # # o+I+J+K+Z                   ",
"            r+{ v+L+# # # # # # # # # # # # # # # # # # # # # # # E.M+N+O+Z                     ",
"            ' + @ # # # # # # # # # # # # # # # # # # # # # # # # P+Q+R+S+h.                    ",
"          ; : ; > # # # # # # # # # # # # # # # # # # # # # # # j T+G.U+Z                       ",
"        * & f+> # # # # # # # # # # # # # # # # # # # # # # # # B V+W+@+h.                      ",
"      X++ ' ) # # # # # # # # # # # # # # # # # # # # # # # # /+W X Y+Z                         ",
"    h.Z Z+`+ @.@+@/+# # # # # # # # # # # # # # # # # # # # # @@].#@Z h.                        ",
"    h.$@%@&@*@.+=@-@T+;@>@,@'@/+# # # # # # # # # # # # # # )@p+q+g.h.                          ",
"    h.$@Z+!@~@{@]@X ^@/@V+Q+=@-@T+;@,@(@/+_@# # # # # # # E.;@t+:@Z                             ",
"    h.h.$@<@[@}@|@1@2@3@4@5@]@X ^@/@V+Q+=@-@T+6@,@7@/+8@#  +.+++@+h.                            ",
"      h.h.h.9@0@a@b@c@d@[@}@|@1@2@3@4@5@]@X ^@/@V+Q+=@W e@-@_+Y+Z                               ",
"              h.h.h.f@g@h@i@b@b@c@d@[@}@|@1@2@3@4@5@]@j@p+t+#@Z h.                              ",
"                    h.h.h.h.k@l@m@n@o@i@b@b@c@d@[@}@|@1@f.p@S+h.                                ",
"                            h.h.h.q@r@l@n@n@n@n@o@i@b@b@s@t@h.h.                                ",
"                                  h.h.h.h.f@g@u@n@n@n@n@v@h.h.                                  ",
"                                        h.h.h.h.h.k@l@m@w@h.                                    ",
"                                                h.h.h.h.h.h.                                    ",
"                                                      h.h.                                      ",
"                                                                                                ",
"                                                                                                ",
"                                                                                                ",
"                                                                                                ",
"                                                                                                "};
