/* XPM */
static char * config_xpm[] = {
"48 48 392 2",
"  	c None",
". 	c #000000",
"+ 	c #CFCFCF",
"@ 	c #FFFFFF",
"# 	c #070707",
"$ 	c #2F2F2F",
"% 	c #383838",
"& 	c #313131",
"* 	c #0A0A0A",
"= 	c #0C0C0C",
"- 	c #202020",
"; 	c #303030",
"> 	c #353535",
", 	c #2C2C2C",
"' 	c #1F1F1F",
") 	c #494949",
"! 	c #111111",
"~ 	c #090909",
"{ 	c #151515",
"] 	c #050505",
"^ 	c #060606",
"/ 	c #1D1D1D",
"( 	c #212121",
"_ 	c #191919",
": 	c #010101",
"< 	c #161616",
"[ 	c #1C1C1C",
"} 	c #040404",
"| 	c #030303",
"1 	c #0E0D0D",
"2 	c #474243",
"3 	c #504C4D",
"4 	c #3B3839",
"5 	c #040303",
"6 	c #323232",
"7 	c #4C4C4C",
"8 	c #151414",
"9 	c #010001",
"0 	c #020001",
"a 	c #0D0304",
"b 	c #401113",
"c 	c #3A1416",
"d 	c #240F11",
"e 	c #0A0102",
"f 	c #100D0D",
"g 	c #141414",
"h 	c #131313",
"i 	c #0B0507",
"j 	c #0E0006",
"k 	c #16000B",
"l 	c #252525",
"m 	c #201818",
"n 	c #1A0705",
"o 	c #3E2218",
"p 	c #484123",
"q 	c #475328",
"r 	c #3E4F24",
"s 	c #404523",
"t 	c #443B23",
"u 	c #4A3023",
"v 	c #532924",
"w 	c #582B2C",
"x 	c #583137",
"y 	c #4C3238",
"z 	c #331C28",
"A 	c #203910",
"B 	c #3E5D32",
"C 	c #61934B",
"D 	c #190B06",
"E 	c #332514",
"F 	c #445E36",
"G 	c #659A4D",
"H 	c #7DBC57",
"I 	c #7FB150",
"J 	c #8E9B50",
"K 	c #9C8450",
"L 	c #AA6C50",
"M 	c #B35D50",
"N 	c #B0605D",
"O 	c #9D666A",
"P 	c #634C52",
"Q 	c #3D2937",
"R 	c #270E22",
"S 	c #0E1D00",
"T 	c #325623",
"U 	c #5E9F4F",
"V 	c #5DB34C",
"W 	c #69BC4F",
"X 	c #3D4826",
"Y 	c #629C4F",
"Z 	c #5DB54C",
"` 	c #6BBC50",
" .	c #7BB952",
"..	c #87A951",
"+.	c #959251",
"@.	c #A37B51",
"#.	c #AF6451",
"$.	c #B35757",
"%.	c #AD5468",
"&.	c #9E567D",
"*.	c #864F89",
"=.	c #795681",
"-.	c #624D65",
";.	c #1E0A1E",
">.	c #29002D",
",.	c #37003E",
"'.	c #325426",
").	c #4A873F",
"!.	c #66CB5A",
"~.	c #66CD53",
"{.	c #6FC451",
"].	c #7DB551",
"^.	c #8BA351",
"/.	c #998D51",
"(.	c #A77551",
"_.	c #B45E51",
":.	c #B2555C",
"<.	c #AA516E",
"[.	c #9D5187",
"}.	c #8E519D",
"|.	c #8459A7",
"1.	c #66CD52",
"2.	c #71C251",
"3.	c #7FB351",
"4.	c #8DA151",
"5.	c #9B8A51",
"6.	c #A97251",
"7.	c #B55C52",
"8.	c #B2545E",
"9.	c #A95171",
"0.	c #9B5189",
"a.	c #8C51A0",
"b.	c #835BA7",
"c.	c #705994",
"d.	c #443854",
"e.	c #33143D",
"f.	c #2C0033",
"g.	c #162F00",
"h.	c #4B8342",
"i.	c #5FBC59",
"j.	c #5CD851",
"k.	c #68CC51",
"l.	c #75BE51",
"m.	c #83AE51",
"n.	c #919B51",
"o.	c #9F8451",
"p.	c #AD6C51",
"q.	c #B85652",
"r.	c #B15262",
"s.	c #A65177",
"t.	c #975190",
"u.	c #8951A5",
"v.	c #7B51B7",
"w.	c #6ACA51",
"x.	c #77BC51",
"y.	c #84AB51",
"z.	c #929951",
"A.	c #A18151",
"B.	c #AE6951",
"C.	c #B85453",
"D.	c #B05265",
"E.	c #A4517A",
"F.	c #965192",
"G.	c #8751A8",
"H.	c #7951B9",
"I.	c #6F56BA",
"J.	c #6C6698",
"K.	c #3C2950",
"L.	c #1D0024",
"M.	c #0B1800",
"N.	c #419A3C",
"O.	c #5BD455",
"P.	c #60D451",
"Q.	c #6CC751",
"R.	c #7AB851",
"S.	c #88A651",
"T.	c #969251",
"U.	c #A47A51",
"V.	c #B06552",
"W.	c #B85354",
"X.	c #AD5169",
"Y.	c #9F5181",
"Z.	c #915199",
"`.	c #8451AD",
" +	c #7751BD",
".+	c #6B52C8",
"++	c #695AC5",
"@+	c #8251AF",
"#+	c #7551BF",
"$+	c #6B53C8",
"%+	c #685BC4",
"&+	c #312458",
"*+	c #0E0013",
"=+	c #040900",
"-+	c #3D9D39",
";+	c #5BD952",
">+	c #65CF51",
",+	c #71C151",
"'+	c #7FB151",
")+	c #8E9F51",
"!+	c #9C8951",
"~+	c #A97151",
"{+	c #B25E54",
"]+	c #B5525C",
"^+	c #A85173",
"/+	c #9A518B",
"(+	c #8B51A2",
"_+	c #7E51B4",
":+	c #7151C3",
"<+	c #6652CF",
"[+	c #5F55D6",
"}+	c #7D51B6",
"|+	c #7051C5",
"1+	c #6552D0",
"2+	c #5E55D7",
"3+	c #282159",
"4+	c #050008",
"5+	c #000100",
"6+	c #3C9A38",
"7+	c #5DD650",
"8+	c #77BB51",
"9+	c #85AA51",
"0+	c #939751",
"a+	c #A27F51",
"b+	c #AE6851",
"c+	c #B45856",
"d+	c #B05165",
"e+	c #A3517D",
"f+	c #945194",
"g+	c #8551AB",
"h+	c #7851BB",
"i+	c #6C51C9",
"j+	c #6051D5",
"k+	c #5652DD",
"l+	c #28276B",
"m+	c #131212",
"n+	c #5F52D6",
"o+	c #5452DF",
"p+	c #212058",
"q+	c #000001",
"r+	c #409738",
"s+	c #62D250",
"t+	c #6EC551",
"u+	c #7CB551",
"v+	c #998E51",
"w+	c #B36051",
"x+	c #B65259",
"y+	c #AC516E",
"z+	c #9D5186",
"A+	c #7F51B1",
"B+	c #7351C0",
"C+	c #6752CD",
"D+	c #5D53D9",
"E+	c #5352E0",
"F+	c #27276C",
"G+	c #5C53DA",
"H+	c #5252E1",
"I+	c #1F2059",
"J+	c #060900",
"K+	c #47943A",
"L+	c #69CB53",
"M+	c #73BF51",
"N+	c #82AF51",
"O+	c #909A51",
"P+	c #9E8451",
"Q+	c #AB6D51",
"R+	c #B35B54",
"S+	c #B25160",
"T+	c #97518F",
"U+	c #6E51C5",
"V+	c #6352D2",
"W+	c #5953DC",
"X+	c #5854DD",
"Y+	c #30296A",
"Z+	c #110808",
"`+	c #222121",
" @	c #25215D",
".@	c #05000A",
"+@	c #0F1700",
"@@	c #4E8A40",
"#@	c #6FBC57",
"$@	c #79B951",
"%@	c #87A851",
"&@	c #B06451",
"*@	c #B35759",
"=@	c #AE5168",
"-@	c #A05181",
";@	c #915198",
">@	c #8351AC",
",@	c #7651BE",
"'@	c #6A51CB",
")@	c #5E52D7",
"!@	c #5654DD",
"~@	c #5E58CE",
"{@	c #3C2B61",
"]@	c #170100",
"^@	c #030000",
"/@	c #2E235E",
"(@	c #0D0019",
"_@	c #1C2A00",
":@	c #537249",
"<@	c #729F5F",
"[@	c #B65B51",
"}@	c #B3535E",
"|@	c #7E51B3",
"1@	c #6452D0",
"2@	c #5455DA",
"3@	c #655DA9",
"4@	c #4D2F4B",
"5@	c #330300",
"6@	c #324124",
"7@	c #546942",
"8@	c #85A065",
"9@	c #929555",
"0@	c #AE6A51",
"a@	c #B75653",
"b@	c #B05264",
"c@	c #A3517B",
"d@	c #955193",
"e@	c #7A51B9",
"f@	c #6D51C8",
"g@	c #6051D4",
"h@	c #6157D2",
"i@	c #6357B6",
"j@	c #453155",
"k@	c #3B1C2A",
"l@	c #121600",
"m@	c #3A4128",
"n@	c #6A7254",
"o@	c #7E764E",
"p@	c #987051",
"q@	c #B06457",
"r@	c #B65458",
"s@	c #AC516C",
"t@	c #9D5184",
"u@	c #8F519C",
"v@	c #8251AE",
"w@	c #7852BD",
"x@	c #6F53C6",
"y@	c #5B4CBB",
"z@	c #594AA0",
"A@	c #5A4376",
"B@	c #2E121E",
"C@	c #8D519F",
"D@	c #8151B0",
"E@	c #21200A",
"F@	c #443C36",
"G@	c #7D5554",
"H@	c #B06264",
"I@	c #B25261",
"J@	c #A75074",
"K@	c #99508D",
"L@	c #8950A5",
"M@	c #7E4FB3",
"N@	c #7A53BC",
"O@	c #7A59BC",
"P@	c #544376",
"Q@	c #392537",
"R@	c #270807",
"S@	c #8850A7",
"T@	c #7C4FB5",
"U@	c #382D16",
"V@	c #452F1E",
"W@	c #4E2C24",
"X@	c #472123",
"Y@	c #3F1E2A",
"Z@	c #371D33",
"`@	c #311D3C",
" #	c #311D41",
".#	c #372044",
"+#	c #422443",
"@#	c #431D29",
"##	c #3C1619",
"$#	c #3D1D2C",
"%#	c #361D34",
"&#	c #311D3D",
"*#	c #301D45",
"=#	c #331E4F",
"-#	c #381F55",
";#	c #312500",
">#	c #261B00",
",#	c #170E00",
"'#	c #0B0600",
")#	c #040200",
"!#	c #070100",
"~#	c #120300",
"{#	c #210600",
"]#	c #390800",
"^#	c #030002",
"/#	c #040006",
"(#	c #0C0011",
"_#	c #150020",
"                                                                                                ",
"                      . . . . . .                                                               ",
"                      . . . . . .                                                               ",
"                  . . + + + + + + . .                                                           ",
"                  . . + + + + + + . .                                                           ",
"                      . . + + + + + + . .                                                       ",
"                      . . + + + + + + . .                                                       ",
"                          . . + + + + + + . .                                                   ",
"                          . . + + + + + + . .                                                   ",
"      . .                     . . + + + + . .                                                   ",
"      . .                     . . + + + + . .                                                   ",
"  . . + + . .             . . + + + + @ @ . .                                                   ",
"  . . + + . .             . . + + + + @ @ . .           . . .                                   ",
"  . . + + + + . .     . . + + + + + + + + . .       . # $ % & * . .                             ",
"  . . + + + + . .     . . + + + + + + + + . . .   . = - ; > , # . .                             ",
"  . . + + + + + + . . + + + + @ @ + + + + . . .   . ' ) ! . . . . . . . .                       ",
"  . . + + + + + + . . + + + + @ @ + + + + . . . . . ~ { ] . . . . . . . . . .                   ",
"      . . + + + + + + + + + + + + @ @ + + + + . . * . . . . ^ / ( _ : < ( - ~ .                 ",
"      . . + + + + + + + + + + + + @ @ + + + + . . [ } : ] | 1 2 3 4 5 6 7 ) 8 9 0               ",
"          . . + + + + @ @ + + + + + + @ @ + + + + . . ] & ( a b c d e f g h i j k               ",
"          . . + + + + @ @ + + + + + + @ @ + + + + . . l , m n o p q r s t u v w x y z           ",
"        A B C . . . . . . . . . . + + + + @ @ + + + + . . D E F G H I J K L M N O P Q R         ",
"    S T U V W . . . . . . . . . . + + + + @ @ + + + + . . X Y Z `  ...+.@.#.$.%.&.*.=.-.;.>.,.  ",
"    '.).!.~.{.].^./.(._.:.<.[.}.|.. . + + + + @ @ + + + + . . 1.2.3.4.5.6.7.8.9.0.a.b.c.d.e.f.  ",
"  g.h.i.j.k.l.m.n.o.p.q.r.s.t.u.v.. . + + + + @ @ + + + + . . w.x.y.z.A.B.C.D.E.F.G.H.I.J.K.L.  ",
"  M.N.O.P.Q.R.S.T.U.V.W.X.Y.Z.`. +.+++. . + + + + @ @ + + + + . . . . . . . . . . @+#+$+%+&+*+  ",
"  =+-+;+>+,+'+)+!+~+{+]+^+/+(+_+:+<+[+. . + + + + @ @ + + + + . . . . . . . . . . }+|+1+2+3+4+  ",
"  5+6+7+w.8+9+0+a+b+c+d+e+f+g+h+i+j+k+l+m+. . + + + + @ @ + + + + + + @ @ + + + + . . n+o+p+q+  ",
"  5+r+s+t+u+^.v+(.w+x+y+z+}.A+B+C+D+E+F+m+. . + + + + @ @ + + + + + + @ @ + + + + . . G+H+I+q+  ",
"  J+K+L+M+N+O+P+Q+R+S+s.T+u.v.U+V+W+X+Y+Z+`+< . . + + + + @ @ + + + + + + + + + + + + . .  @.@  ",
"  +@@@#@$@%@T.@.&@*@=@-@;@>@,@'@)@!@~@{@]@^@  . . + + + + @ @ + + + + + + + + + + + + . . /@(@  ",
"  _@:@<@3.4.5.6.[@}@9.0.a.|@:+1@W+2@3@4@5@        . . + + + + @ @ + + + + . . + + + + + + . .   ",
"    6@7@8@9@A.0@a@b@c@d@G.e@f@g@h@i@j@k@          . . + + + + @ @ + + + + . . + + + + + + . .   ",
"    l@m@n@o@p@q@r@s@t@u@v@w@x@y@z@A@B@            . . + + + + + + + + . . C@D@. . + + + + . .   ",
"        E@F@G@H@I@J@K@L@M@N@O@P@Q@R@              . . + + + + + + + + . . S@T@. . + + + + . .   ",
"          U@V@W@X@Y@Z@`@ #.#+#@###                . . @ @ + + + + . . $#%#&#*#=#-#. . + + . .   ",
"          ;#>#,#'#)#. . !#~#{#]#                  . . @ @ + + + + . . ^#. . /#(#_#. . + + . .   ",
"                                                  . . + + + + . .                     . .       ",
"                                                  . . + + + + . .                     . .       ",
"                                                  . . + + + + + + . .                           ",
"                                                  . . + + + + + + . .                           ",
"                                                      . . + + + + + + . .                       ",
"                                                      . . + + + + + + . .                       ",
"                                                          . . + + + + + + . .                   ",
"                                                          . . + + + + + + . .                   ",
"                                                              . . . . . .                       ",
"                                                              . . . . . .                       ",
"                                                                                                "};
