/* XPM */
static char * icon_thumb_xpm[] = {
"20 20 3 1",
" 	c None",
".	c #000000",
"+	c #797D79",
"                    ",
"                    ",
"  ......            ",
"  ......+  . .      ",
"  ......+ . . .     ",
"  ......+  + + +    ",
"   ++++++           ",
"                    ",
"  ......            ",
"  ......+ . . . .   ",
"  ......+  . . . .  ",
"  ......+   + + + + ",
"   ++++++           ",
"                    ",
"  ......            ",
"  ......+  . . .    ",
"  ......+ . . . .   ",
"  ......+  + + + +  ",
"   ++++++           ",
"                    "};
