/* XPM */
static char * icon_reload_xpm[] = {
"20 20 4 1",
" 	c None",
".	c #000000000000",
"X	c #00007DF70000",
"o	c #79E77DF779E7",
"                    ",
"                    ",
"      ......        ",
"     .XXXXXX..      ",
"    .XXXXXXXXX.     ",
"   .XXXX...XXXX.    ",
"   .XXX.ooo..XX.    ",
"   .XX.oo   .XXX.   ",
" ...XX...    .XX.o  ",
"  .XXXX.oo   .XX.o  ",
"   .XX.oo    .XX.o  ",
"    ..oo     .XX.o  ",
"     oo     .XXX.o  ",
"   .....   ..XX.oo  ",
"   .XXX....XXXX.o   ",
"    .XXXXXXXXX.oo   ",
"     ..XXXXX..oo    ",
"      o.....ooo     ",
"        ooooo       ",
"                    "};
