/* XPM */
static char * icon_xpm[] = {
"48 48 654 2",
"  	c None",
". 	c #000000",
"+ 	c #030200",
"@ 	c #0A0A0A",
"# 	c #313131",
"$ 	c #383838",
"% 	c #302F2F",
"& 	c #0A0907",
"* 	c #020100",
"= 	c #070707",
"- 	c #2F2F2F",
"; 	c #2C2C2C",
"> 	c #353535",
", 	c #303030",
"' 	c #202020",
") 	c #0C0C0C",
"! 	c #111111",
"~ 	c #494949",
"{ 	c #1F1F1F",
"] 	c #050505",
"^ 	c #151515",
"/ 	c #090909",
"( 	c #191919",
"_ 	c #212121",
": 	c #131313",
"< 	c #141414",
"[ 	c #060606",
"} 	c #1D1D1D",
"| 	c #010101",
"1 	c #161616",
"2 	c #020500",
"3 	c #010200",
"4 	c #010100",
"5 	c #2B2B2B",
"6 	c #4C4C4C",
"7 	c #1B1B1B",
"8 	c #1C1B1B",
"9 	c #4E4E4C",
"0 	c #4D4D4C",
"a 	c #030303",
"b 	c #1C1C1C",
"c 	c #040404",
"d 	c #0E0D0D",
"e 	c #474243",
"f 	c #504C4D",
"g 	c #3B3839",
"h 	c #040303",
"i 	c #323232",
"j 	c #151414",
"k 	c #010001",
"l 	c #020001",
"m 	c #122100",
"n 	c #0B1400",
"o 	c #060900",
"p 	c #0D0E0B",
"q 	c #0A0A07",
"r 	c #111007",
"s 	c #252214",
"t 	c #191814",
"u 	c #0B0B0B",
"v 	c #080808",
"w 	c #343434",
"x 	c #1E1E1E",
"y 	c #0E0E0E",
"z 	c #3A3A3A",
"A 	c #252525",
"B 	c #262626",
"C 	c #0D0304",
"D 	c #401113",
"E 	c #3A1416",
"F 	c #240F11",
"G 	c #0A0102",
"H 	c #100D0D",
"I 	c #0B0507",
"J 	c #0E0006",
"K 	c #16000B",
"L 	c #324920",
"M 	c #3D5D27",
"N 	c #406327",
"O 	c #3C5623",
"P 	c #3E4923",
"Q 	c #433C23",
"R 	c #4A3123",
"S 	c #512D23",
"T 	c #563127",
"U 	c #553A2F",
"V 	c #302622",
"W 	c #191410",
"X 	c #110C06",
"Y 	c #292826",
"Z 	c #292929",
"` 	c #272727",
" .	c #2E2E2E",
"..	c #121212",
"+.	c #201818",
"@.	c #1A0705",
"#.	c #3E2218",
"$.	c #484123",
"%.	c #475328",
"&.	c #3E4F24",
"*.	c #404523",
"=.	c #443B23",
"-.	c #4A3023",
";.	c #532924",
">.	c #582B2C",
",.	c #583137",
"'.	c #4C3238",
").	c #331C28",
"!.	c #203910",
"~.	c #3E5D32",
"{.	c #61934B",
"].	c #7DBE58",
"^.	c #7FB351",
"/.	c #8C9E50",
"(.	c #9A8750",
"_.	c #A86E50",
":.	c #B25F50",
"<.	c #B25E5B",
"[.	c #A4696D",
"}.	c #6A4F55",
"|.	c #423333",
"1.	c #25180F",
"2.	c #0A0603",
"3.	c #282726",
"4.	c #393939",
"5.	c #434343",
"6.	c #131010",
"7.	c #190B06",
"8.	c #332514",
"9.	c #445E36",
"0.	c #659A4D",
"a.	c #7DBC57",
"b.	c #7FB150",
"c.	c #8E9B50",
"d.	c #9C8450",
"e.	c #AA6C50",
"f.	c #B35D50",
"g.	c #B0605D",
"h.	c #9D666A",
"i.	c #634C52",
"j.	c #3D2937",
"k.	c #270E22",
"l.	c #0E1D00",
"m.	c #325623",
"n.	c #5E9F4F",
"o.	c #5DB34C",
"p.	c #69BC4F",
"q.	c #7ABB53",
"r.	c #85AB51",
"s.	c #939551",
"t.	c #A17E51",
"u.	c #AE6751",
"v.	c #B35956",
"w.	c #AE5465",
"x.	c #A1567C",
"y.	c #895088",
"z.	c #7B5681",
"A.	c #685564",
"B.	c #251714",
"C.	c #130C09",
"D.	c #0D0D0D",
"E.	c #110F0F",
"F.	c #180404",
"G.	c #3D4826",
"H.	c #629C4F",
"I.	c #5DB54C",
"J.	c #6BBC50",
"K.	c #7BB952",
"L.	c #87A951",
"M.	c #959251",
"N.	c #A37B51",
"O.	c #AF6451",
"P.	c #B35757",
"Q.	c #AD5468",
"R.	c #9E567D",
"S.	c #864F89",
"T.	c #795681",
"U.	c #624D65",
"V.	c #1E0A1E",
"W.	c #29002D",
"X.	c #37003E",
"Y.	c #325426",
"Z.	c #4A873F",
"`.	c #66CB5A",
" +	c #66CD53",
".+	c #6FC451",
"++	c #7DB551",
"@+	c #8BA351",
"#+	c #998D51",
"$+	c #A77551",
"%+	c #B45E51",
"&+	c #B2555C",
"*+	c #AA516E",
"=+	c #9D5187",
"-+	c #8E519D",
";+	c #8459A7",
">+	c #765E9B",
",+	c #4C4054",
"'+	c #2C1E1F",
")+	c #1B0E09",
"!+	c #262524",
"~+	c #101010",
"{+	c #181818",
"]+	c #060704",
"^+	c #333B24",
"/+	c #538843",
"(+	c #66CB59",
"_+	c #66CD52",
":+	c #71C251",
"<+	c #8DA151",
"[+	c #9B8A51",
"}+	c #A97251",
"|+	c #B55C52",
"1+	c #B2545E",
"2+	c #A95171",
"3+	c #9B5189",
"4+	c #8C51A0",
"5+	c #835BA7",
"6+	c #705994",
"7+	c #443854",
"8+	c #33143D",
"9+	c #2C0033",
"0+	c #162F00",
"a+	c #4B8342",
"b+	c #5FBC59",
"c+	c #5CD851",
"d+	c #68CC51",
"e+	c #75BE51",
"f+	c #83AE51",
"g+	c #919B51",
"h+	c #9F8451",
"i+	c #AD6C51",
"j+	c #B85652",
"k+	c #B15262",
"l+	c #A65177",
"m+	c #975190",
"n+	c #8951A5",
"o+	c #7B51B7",
"p+	c #7054BE",
"q+	c #6D649D",
"r+	c #4B3847",
"s+	c #32180F",
"t+	c #434140",
"u+	c #2C2A2A",
"v+	c #0C0F08",
"w+	c #4D844A",
"x+	c #5FC058",
"y+	c #5ED751",
"z+	c #6ACA51",
"A+	c #77BC51",
"B+	c #84AB51",
"C+	c #929951",
"D+	c #A18151",
"E+	c #AE6951",
"F+	c #B85453",
"G+	c #B05265",
"H+	c #A4517A",
"I+	c #965192",
"J+	c #8751A8",
"K+	c #7951B9",
"L+	c #6F56BA",
"M+	c #6C6698",
"N+	c #3C2950",
"O+	c #1D0024",
"P+	c #0B1800",
"Q+	c #419A3C",
"R+	c #5BD455",
"S+	c #60D451",
"T+	c #6CC751",
"U+	c #7AB851",
"V+	c #88A651",
"W+	c #969251",
"X+	c #A47A51",
"Y+	c #B06552",
"Z+	c #B85354",
"`+	c #AD5169",
" @	c #9F5181",
".@	c #915199",
"+@	c #8451AD",
"@@	c #7751BD",
"#@	c #6B52C8",
"$@	c #695AC5",
"%@	c #3E2E5E",
"&@	c #150603",
"*@	c #0E0D0C",
"=@	c #0F0808",
"-@	c #181208",
";@	c #4AA644",
">@	c #5CD454",
",@	c #61D251",
"'@	c #6EC551",
")@	c #7CB651",
"!@	c #8AA451",
"~@	c #989051",
"{@	c #A67751",
"]@	c #B16252",
"^@	c #B85256",
"/@	c #AB516C",
"(@	c #9D5184",
"_@	c #8F519B",
":@	c #8251AF",
"<@	c #7551BF",
"[@	c #6B53C8",
"}@	c #685BC4",
"|@	c #312458",
"1@	c #0E0013",
"2@	c #040900",
"3@	c #3D9D39",
"4@	c #5BD952",
"5@	c #65CF51",
"6@	c #71C151",
"7@	c #7FB151",
"8@	c #8E9F51",
"9@	c #9C8951",
"0@	c #A97151",
"a@	c #B25E54",
"b@	c #B5525C",
"c@	c #A85173",
"d@	c #9A518B",
"e@	c #8B51A2",
"f@	c #7E51B4",
"g@	c #7151C3",
"h@	c #6652CF",
"i@	c #5F55D6",
"j@	c #312A67",
"k@	c #110B09",
"l@	c #282827",
"m@	c #1E1A1A",
"n@	c #111307",
"o@	c #46AE40",
"p@	c #5CD752",
"q@	c #66CD51",
"r@	c #73C051",
"s@	c #81AF51",
"t@	c #909C51",
"u@	c #9E8651",
"v@	c #AB6E51",
"w@	c #B25C55",
"x@	c #B4515E",
"y@	c #A65176",
"z@	c #98518E",
"A@	c #7D51B6",
"B@	c #7051C5",
"C@	c #6552D0",
"D@	c #5E55D7",
"E@	c #282159",
"F@	c #050008",
"G@	c #000100",
"H@	c #3C9A38",
"I@	c #5DD650",
"J@	c #77BB51",
"K@	c #85AA51",
"L@	c #939751",
"M@	c #A27F51",
"N@	c #AE6851",
"O@	c #B45856",
"P@	c #B05165",
"Q@	c #A3517D",
"R@	c #945194",
"S@	c #8551AB",
"T@	c #7851BB",
"U@	c #6C51C9",
"V@	c #6051D5",
"W@	c #5652DD",
"X@	c #28276B",
"Y@	c #131212",
"Z@	c #333333",
"`@	c #081307",
" #	c #44AD3F",
".#	c #5FD550",
"+#	c #6BC851",
"@#	c #78BA51",
"##	c #87A851",
"$#	c #959451",
"%#	c #A37C51",
"&#	c #AF6551",
"*#	c #B35758",
"=#	c #AF5167",
"-#	c #A15180",
";#	c #935197",
">#	c #7751BC",
",#	c #6A51CA",
"'#	c #5F52D6",
")#	c #5452DF",
"!#	c #212058",
"~#	c #000001",
"{#	c #409738",
"]#	c #62D250",
"^#	c #7CB551",
"/#	c #998E51",
"(#	c #B36051",
"_#	c #B65259",
":#	c #AC516E",
"<#	c #9D5186",
"[#	c #7F51B1",
"}#	c #7351C0",
"|#	c #6752CD",
"1#	c #5D53D9",
"2#	c #5352E0",
"3#	c #27276C",
"4#	c #091307",
"5#	c #48AA3F",
"6#	c #64D050",
"7#	c #70C351",
"8#	c #7EB351",
"9#	c #8CA051",
"0#	c #9A8A51",
"a#	c #A87251",
"b#	c #B45D51",
"c#	c #AA5171",
"d#	c #8C519F",
"e#	c #7E51B3",
"f#	c #7151C1",
"g#	c #5C53DA",
"h#	c #5252E1",
"i#	c #1F2059",
"j#	c #47943A",
"k#	c #69CB53",
"l#	c #73BF51",
"m#	c #82AF51",
"n#	c #909A51",
"o#	c #9E8451",
"p#	c #AB6D51",
"q#	c #B35B54",
"r#	c #B25160",
"s#	c #97518F",
"t#	c #6E51C5",
"u#	c #6352D2",
"v#	c #5953DC",
"w#	c #5854DD",
"x#	c #30296A",
"y#	c #110808",
"z#	c #222121",
"A#	c #1B1617",
"B#	c #131208",
"C#	c #50A442",
"D#	c #6ACA53",
"E#	c #75BD51",
"F#	c #84AD51",
"G#	c #929851",
"H#	c #A08151",
"I#	c #AD6A51",
"J#	c #B45955",
"K#	c #B15163",
"L#	c #955192",
"M#	c #8751A7",
"N#	c #6D51C7",
"O#	c #6152D3",
"P#	c #5755DD",
"Q#	c #25215D",
"R#	c #05000A",
"S#	c #0F1700",
"T#	c #4E8A40",
"U#	c #6FBC57",
"V#	c #79B951",
"W#	c #B06451",
"X#	c #B35759",
"Y#	c #AE5168",
"Z#	c #A05181",
"`#	c #915198",
" $	c #8351AC",
".$	c #7651BE",
"+$	c #6A51CB",
"@$	c #5E52D7",
"#$	c #5654DD",
"$$	c #5E58CE",
"%$	c #3C2B61",
"&$	c #170100",
"*$	c #030000",
"=$	c #0C0002",
"-$	c #22100B",
";$	c #589448",
">$	c #70BC57",
",$	c #7BB751",
"'$	c #89A651",
")$	c #978F51",
"!$	c #A57851",
"~$	c #B26151",
"{$	c #B3565A",
"]$	c #AC516B",
"^$	c #9E5184",
"/$	c #90519B",
"($	c #6851CD",
"_$	c #5D52D8",
":$	c #5754DB",
"<$	c #5F59CC",
"[$	c #2E235E",
"}$	c #0D0019",
"|$	c #1C2A00",
"1$	c #537249",
"2$	c #729F5F",
"3$	c #B65B51",
"4$	c #B3535E",
"5$	c #6452D0",
"6$	c #5455DA",
"7$	c #655DA9",
"8$	c #4D2F4B",
"9$	c #330300",
"0$	c #360D10",
"a$	c #5E7253",
"b$	c #74A25D",
"c$	c #81B051",
"d$	c #8F9E51",
"e$	c #9D8751",
"f$	c #AB6F51",
"g$	c #B85851",
"h$	c #B25360",
"i$	c #A85174",
"j$	c #9A518C",
"k$	c #8A51A3",
"l$	c #7C51B5",
"m$	c #6F51C5",
"n$	c #6353D2",
"o$	c #5853DD",
"p$	c #5756D4",
"q$	c #675EA3",
"r$	c #392559",
"s$	c #1A002E",
"t$	c #324124",
"u$	c #546942",
"v$	c #85A065",
"w$	c #929555",
"x$	c #AE6A51",
"y$	c #B75653",
"z$	c #B05264",
"A$	c #A3517B",
"B$	c #955193",
"C$	c #7A51B9",
"D$	c #6D51C8",
"E$	c #6051D4",
"F$	c #6157D2",
"G$	c #6357B6",
"H$	c #453155",
"I$	c #3B1C2A",
"J$	c #3B322B",
"K$	c #5E6A49",
"L$	c #869F63",
"M$	c #949453",
"N$	c #A27E51",
"O$	c #AF6752",
"P$	c #AE5267",
"Q$	c #A1517E",
"R$	c #935196",
"S$	c #8651AA",
"T$	c #6B51CA",
"U$	c #5F51D6",
"V$	c #6258D0",
"W$	c #5D52AD",
"X$	c #382B57",
"Y$	c #2A1842",
"Z$	c #121600",
"`$	c #3A4128",
" %	c #6A7254",
".%	c #7E764E",
"+%	c #987051",
"@%	c #B06457",
"#%	c #B65458",
"$%	c #AC516C",
"%%	c #8F519C",
"&%	c #8251AE",
"*%	c #7852BD",
"=%	c #6F53C6",
"-%	c #5B4CBB",
";%	c #594AA0",
">%	c #5A4376",
",%	c #2E121E",
"'%	c #1C0007",
")%	c #473C34",
"!%	c #6E6D56",
"~%	c #81764E",
"{%	c #9C6F52",
"]%	c #B16257",
"^%	c #B75158",
"/%	c #AA516F",
"(%	c #9C5187",
"_%	c #8D519F",
":%	c #8151B0",
"<%	c #7752BE",
"[%	c #6C53C5",
"}%	c #584CB9",
"|%	c #5849A0",
"1%	c #4F3D79",
"2%	c #180828",
"3%	c #21200A",
"4%	c #443C36",
"5%	c #7D5554",
"6%	c #B06264",
"7%	c #B25261",
"8%	c #A75074",
"9%	c #99508D",
"0%	c #8950A5",
"a%	c #7E4FB3",
"b%	c #7A53BC",
"c%	c #7A59BC",
"d%	c #544376",
"e%	c #392537",
"f%	c #270807",
"g%	c #220610",
"h%	c #2A1119",
"i%	c #493D3D",
"j%	c #865857",
"k%	c #B16064",
"l%	c #B25061",
"m%	c #A55077",
"n%	c #975090",
"o%	c #8850A7",
"p%	c #7C4FB5",
"q%	c #7A54BD",
"r%	c #7556B3",
"s%	c #4F406E",
"t%	c #2D1E40",
"u%	c #160426",
"v%	c #382D16",
"w%	c #452F1E",
"x%	c #4E2C24",
"y%	c #472123",
"z%	c #3F1E2A",
"A%	c #371D33",
"B%	c #311D3C",
"C%	c #311D41",
"D%	c #372044",
"E%	c #422443",
"F%	c #431D29",
"G%	c #3C1619",
"H%	c #3C172A",
"I%	c #481F2E",
"J%	c #4D232D",
"K%	c #461D27",
"L%	c #3D1D2C",
"M%	c #361D34",
"N%	c #311D3D",
"O%	c #301D45",
"P%	c #331E4F",
"Q%	c #381F55",
"R%	c #311748",
"S%	c #270F3A",
"T%	c #312500",
"U%	c #261B00",
"V%	c #170E00",
"W%	c #0B0600",
"X%	c #040200",
"Y%	c #070100",
"Z%	c #120300",
"`%	c #210600",
" &	c #390800",
".&	c #35001E",
"+&	c #260017",
"@&	c #15000E",
"#&	c #090006",
"$&	c #030002",
"%&	c #040006",
"&&	c #0C0011",
"*&	c #150020",
"=&	c #210035",
"                                                                                                ",
"                                                                                                ",
"                                                                                                ",
"                                                                                                ",
"                                                                                                ",
"                                                                                                ",
"                                                                                                ",
"                                                                                                ",
"                                                                                                ",
"                                                                                                ",
"                                                                                                ",
"                                                                                                ",
"                                    . . +               . . .                                   ",
"                              . . @ # $ % & *       . = - $ # @ . .                             ",
"                              . . = ; > , ' ) .   . ) ' , > ; = . .                             ",
"                        . . . . . . . . ! ~ { .   . { ~ ! . . . . . . . .                       ",
"                    . . . . . . . . . . ] ^ / . . . / ^ ] . . . . . . . . . .                   ",
"                  ( _ _ ) ) _ _ : . . . . . < _ _ @ . . . . [ } _ ( | 1 _ ' / .                 ",
"            2 3 4 5 6 6 7 8 9 0 5 | ] a | [ # 6 6 b c | ] a d e f g h i 6 ~ j k l               ",
"            m n o p < < q r s t u v w x y z A < < i B ] # _ C D E F G H < : I J K               ",
"          L M N O P Q R S T U V W X Y Z `  .... . ' 5 A ; +.@.#.$.%.&.*.=.-.;.>.,.'.).          ",
"        !.~.{.].^./.(._.:.<.[.}.|.1.2.3.4.[ . . . . } 5.6.7.8.9.0.a.b.c.d.e.f.g.h.i.j.k.        ",
"    l.m.n.o.p.q.r.s.t.u.v.w.x.y.z.A.B.C.D.| . . . . [ E.F.G.H.I.J.K.L.M.N.O.P.Q.R.S.T.U.V.W.X.  ",
"    Y.Z.`. +.+++@+#+$+%+&+*+=+-+;+>+,+'+)+!+~+. . b {+]+^+/+(+_+:+^.<+[+}+|+1+2+3+4+5+6+7+8+9+  ",
"  0+a+b+c+d+e+f+g+h+i+j+k+l+m+n+o+p+q+r+s+t+7 . . # u+v+w+x+y+z+A+B+C+D+E+F+G+H+I+J+K+L+M+N+O+  ",
"  P+Q+R+S+T+U+V+W+X+Y+Z+`+ @.@+@@@#@$@%@&@*@] . . / =@-@;@>@,@'@)@!@~@{@]@^@/@(@_@:@<@[@}@|@1@  ",
"  2@3@4@5@6@7@8@9@0@a@b@c@d@e@f@g@h@i@j@k@l@! . . x m@n@o@p@q@r@s@t@u@v@w@x@y@z@n+A@B@C@D@E@F@  ",
"  G@H@I@z+J@K@L@M@N@O@P@Q@R@S@T@U@V@W@X@Y@6 ' . . z Z@`@ #.#+#@###$#%#&#*#=#-#;#+@>#,#'#)#!#~#  ",
"  G@{#]#'@^#@+/#$+(#_#:#<#-+[#}#|#1#2#3#Y@6 ' . . z Z@4#5#6#7#8#9#0#a#b#b@c#3+d#e#f#h@g#h#i#~#  ",
"  o j#k#l#m#n#o#p#q#r#l+s#n+o+t#u#v#w#x#y#z#1     { A#B#C#D#E#F#G#H#I#J#K#H+L#M#K+N#O#v#P#Q#R#  ",
"  S#T#U#V###W+N.W#X#Y#Z#`# $.$+$@$#$$$%$&$*$      . =$-$;$>$,$'$)$!$~${$]$^$/$:@<@($_$:$<$[$}$  ",
"  |$1$2$^.<+[+}+3$4$2+3+4+e#g@5$v#6$7$8$9$            0$a$b$c$d$e$f$g$h$i$j$k$l$m$n$o$p$q$r$s$  ",
"    t$u$v$w$D+x$y$z$A$B$J+C$D$E$F$G$H$I$                J$K$L$M$N$O$F+P$Q$R$S$T@T$U$V$W$X$Y$    ",
"    Z$`$ %.%+%@%#%$%(@%%&%*%=%-%;%>%,%                  '%)%!%~%{%]%^%/%(%_%:%<%[%}%|%1%2%      ",
"        3%4%5%6%7%8%9%0%a%b%c%d%e%f%                      g%h%i%j%k%l%m%n%o%p%q%r%s%t%u%        ",
"          v%w%x%y%z%A%B%C%D%E%F%G%                            H%I%J%K%L%M%N%O%P%Q%R%S%          ",
"          T%U%V%W%X%. . Y%Z%`% &                              .&+&@&#&$&. . %&&&*&=&            ",
"                                                                                                ",
"                                                                                                ",
"                                                                                                ",
"                                                                                                ",
"                                                                                                ",
"                                                                                                ",
"                                                                                                ",
"                                                                                                ",
"                                                                                                ",
"                                                                                                ",
"                                                                                                "};
