/* XPM */
static char * icon_config_xpm[] = {
"20 20 5 1",
" 	c None",
".	c #000000000000",
"X	c #CF3CCF3CCF3C",
"o	c #79E77DF779E7",
"O	c #FFFFFFFFFFFF",
"                    ",
"    ...             ",
"    .XX.            ",
"     .XX.           ",
" ..   .X.o          ",
" .X. .XX.o          ",
" .XX.XXO.o          ",
"  .XXOXXX.          ",
"   ....XOX.         ",
"    ooo.XOX.        ",
"        .XOX....    ",
"         .XXOXOX.   ",
"          .XXX.XX.  ",
"          .OX.o.X.o ",
"          .X.oo ..o ",
"          .XX.   oo ",
"           .XX.     ",
"            ...o    ",
"             ooo    ",
"                    "};
