/* XPM */
static char * icon_zoom_out_xpm[] = {
"20 20 6 1",
" 	c None",
".	c #000000000000",
"X	c #E79DE79DE79D",
"o	c #B6DAB2CAB6DA",
"O	c #79E77DF779E7",
"+	c #FFFFFFFFFFFF",
"                    ",
"     ...            ",
"   ..XXX..          ",
"  .XXoooXX.         ",
"  .XooXooX.         ",
" .XooXXXXXX.        ",
" .X.......X.O       ",
" .XoXXXXXXX.O       ",
"  .XXXXXXX.OO       ",
"  .XXXXXXX.O        ",
"   ..XXX..X.        ",
"     ...OO.X..      ",
"      OOO  .+X.     ",
"           .X+X.    ",
"            .X+X.   ",
"             .X+X.  ",
"              .X+X. ",
"               .X.OO",
"                .OO ",
"                O   "};
