/* XPM */
static char * icon_float_xpm[] = {
"10 20 5 1",
" 	c None",
".	c #000000",
"+	c #FFFFFF",
"@	c #CFCFCF",
"#	c #797D79",
"          ",
" .......  ",
" .++@+@.# ",
" .+@+@@.# ",
"  .@@@.## ",
"  .+@@.## ",
"  .@@@.#  ",
"  .+@@.#  ",
" .++@@@.  ",
".++@+@+@. ",
".+@@@@@@.#",
".........#",
"  #.@.####",
"   .+.#   ",
"   .+.#   ",
"   .+.#   ",
"   .+.#   ",
"    .##   ",
"     #    ",
"          "};
