/* XPM */
static char * icon_home_xpm[] = {
"20 20 7 1",
" 	c None",
".	c #FFFF00000000",
"X	c #79E700000000",
"o	c #10402CB22081",
"O	c #79E77DF779E7",
"+	c #9E799A699E79",
"@	c #FFFFFFFFFFFF",
"                    ",
"    .XX  oo         ",
"    .XoOo++o        ",
"    .Xoo+++@o       ",
"    .Xo+++@@@o      ",
"    .o+++@@@@@o     ",
"    o+++@@@@@@@o    ",
"   o+++@@@@@@@@@o   ",
"  ooo+@@@@@@@@@ooo  ",
"   Oo@@@@@@@@@@oOOO ",
"    o@@@@@@@@@@oO   ",
"    o@@oooo@@@@oO   ",
"    o@@oO o@@@@oO   ",
"    o@@oO o@@@@oO   ",
"    o@@oO o@@@@oO   ",
"    o@@oO o@@@@oO   ",
"    o@@oO o@@@@oO   ",
"    ooooO ooooooO   ",
"     OOOO  OOOOOO   ",
"                    "};
