/* XPM */
static char * icon_zoom_in_xpm[] = {
"20 20 6 1",
" 	c None",
".	c #000000000000",
"X	c #E79DE79DE79D",
"o	c #B6DAB2CAB6DA",
"O	c #79E77DF779E7",
"+	c #FFFFFFFFFFFF",
"                    ",
"     ...            ",
"   ..XXX..          ",
"  .XXo.oXX.         ",
"  .Xoo.XoX.         ",
" .XooX.XXXX.        ",
" .X.......X.O       ",
" .XoXX.XXXX.O       ",
"  .XXX.XXX.OO       ",
"  .XXX.XXX.O        ",
"   ..XXX..X.        ",
"     ...OO.X..      ",
"      OOO  .+X.     ",
"           .X+X.    ",
"            .X+X.   ",
"             .X+X.  ",
"              .X+X. ",
"               .X.OO",
"                .OO ",
"                O   "};
