/* XPM */
static char * icon_zoom_fit_xpm[] = {
"20 20 3 1",
" 	c None",
".	c #000000000000",
"X	c #79E77DF779E7",
"                    ",
"                    ",
"      .......       ",
"       XX.XXXX      ",
"        ...         ",
"       . .X.        ",
"  .      .X     .   ",
"  .X .   .X  .  .X  ",
"  .X.     X   . .X  ",
"  ......   ......X  ",
"  .X.XXXX   XX.X.X  ",
"  .X .   .   .  .X  ",
"  .X     .X     .X  ",
"   X   . .X.     X  ",
"        ...         ",
"         .X         ",
"      .......       ",
"       XXXXXXX      ",
"                    ",
"                    "};
