/* XPM */
static char * img_unknown_xpm[] = {
"48 48 108 2",
"  	c None",
". 	c #DDDDDD",
"+ 	c #DCDCDC",
"@ 	c #DBDBDB",
"# 	c #DADADA",
"$ 	c #D9D9D9",
"% 	c #D8D8D8",
"& 	c #D7D7D7",
"* 	c #D6D6D6",
"= 	c #D5D5D5",
"- 	c #D4D4D4",
"; 	c #D3D3D3",
"> 	c #D2D2D2",
", 	c #D1D1D1",
"' 	c #F40000",
") 	c #F30000",
"! 	c #F10000",
"~ 	c #F00000",
"{ 	c #EF0000",
"] 	c #EE0000",
"^ 	c #ED0000",
"/ 	c #CDCDCD",
"( 	c #CECECE",
"_ 	c #CFCFCF",
": 	c #D0D0D0",
"< 	c #F50000",
"[ 	c #EB0000",
"} 	c #EA0000",
"| 	c #E90000",
"1 	c #E80000",
"2 	c #C9C9C9",
"3 	c #CACACA",
"4 	c #CCCCCC",
"5 	c #F60000",
"6 	c #EC0000",
"7 	c #E60000",
"8 	c #E50000",
"9 	c #E40000",
"0 	c #E30000",
"a 	c #E20000",
"b 	c #C6C6C6",
"c 	c #C7C7C7",
"d 	c #CBCBCB",
"e 	c #C4C4C4",
"f 	c #C3C3C3",
"g 	c #DF0000",
"h 	c #DE0000",
"i 	c #DD0000",
"j 	c #DC0000",
"k 	c #F70000",
"l 	c #E70000",
"m 	c #C0C0C0",
"n 	c #BEBEBE",
"o 	c #BCBCBC",
"p 	c #D80000",
"q 	c #D70000",
"r 	c #D90000",
"s 	c #BDBDBD",
"t 	c #BFBFBF",
"u 	c #C5C5C5",
"v 	c #F20000",
"w 	c #C2C2C2",
"x 	c #BBBBBB",
"y 	c #B9B9B9",
"z 	c #B8B8B8",
"A 	c #D30000",
"B 	c #D20000",
"C 	c #D50000",
"D 	c #C1C1C1",
"E 	c #E00000",
"F 	c #BABABA",
"G 	c #B6B6B6",
"H 	c #B5B5B5",
"I 	c #B4B4B4",
"J 	c #CF0000",
"K 	c #CE0000",
"L 	c #D00000",
"M 	c #B7B7B7",
"N 	c #B3B3B3",
"O 	c #B2B2B2",
"P 	c #CC0000",
"Q 	c #CB0000",
"R 	c #CA0000",
"S 	c #B1B1B1",
"T 	c #C80000",
"U 	c #C70000",
"V 	c #AFAFAF",
"W 	c #C90000",
"X 	c #C60000",
"Y 	c #C50000",
"Z 	c #ADADAD",
"` 	c #C40000",
" .	c #ABABAB",
"..	c #AEAEAE",
"+.	c #C8C8C8",
"@.	c #C30000",
"#.	c #AAAAAA",
"$.	c #B0B0B0",
"%.	c #D10000",
"&.	c #A9A9A9",
"*.	c #ACACAC",
"=.	c #D60000",
"-.	c #DA0000",
";.	c #D40000",
">.	c #CD0000",
",.	c #DB0000",
"'.	c #E10000",
").	c #000000",
". . . . . . . . . . . . . . . . + + @ @ # $ % & * * * = = = = = = * * & % $ $ # @ + + . . . . . ",
". . . . . . . . . . . . . . . + + @ # $ % & * = - ; > > , , , , > ; ; = * * % $ # @ + + . . . . ",
". . . . . . . . . . . . . . + + @ # % & * = ' ) ! ~ { ] ^ / / / ( _ : , > - * & % # @ + + . . . ",
". . . . . . . . . . . . . + + @ # % * * < ) ! { ^ [ } | 1 1 1 1 2 3 4 / _ , ; = * % $ @ + + . . ",
". . . . . . . . . . . . . + @ # % * 5 ' ! { 6 } 1 7 8 9 0 a a 0 0 b c 2 d / : > = * % # @ + . . ",
". . . . . . . . . . . . + @ # $ & 5 ' ! ] [ 1 b e f g h i i j i i g f e c 2 4 : > = * % # @ + . ",
". . . . . . . . . . . . + @ $ & k ' ! ] } l 9 f m n o o p q q q p r s t f u 2 4 : > = & $ @ + . ",
". . . . . . . . . . . + @ # % * < v { [ l 0 w t o x y z A A B B B A C x s D u 2 / : ; * % # @ + ",
". . . . . . . . . . . + @ $ & k ' ~ 6 1 9 E n o F z G H I J K K K J L G y s D u 2 ( , = & $ @ + ",
". . . . . . . . . . . + # $ & 5 v { } 7 a m o F M G H N O P Q R R Q P O G y n f c 4 : ; * % # + ",
". . . . . . . . . . + + # % * - v ] | 8 f t o y M G I O S Q R T U U T V O G x m u 2 _ > * % # @ ",
". . . . . . . . . . + @ # % * - : / 2 b w n o y M G I N S Q W U X Y X Z V I z s f 2 / , = & $ @ ",
". . . . . . . . . . + @ # % * - : ( 2 b f t o F z G G I O Q W U Y ` `  ...S G o w c 4 : - & $ @ ",
". . . . . . . . . . + + # % * - , ( 3 +.e D n o x y M G J P R U Y @.@.#.Z $.G x D b d : - * $ @ ",
". . . . . . . . . . . + # $ & = > : 4 2 b f D n o x y M %.K Q U Y @.&.&.*.$.H x m b d : - * $ @ ",
". . . . . . . . . . . + @ $ % * ; : ( d 2 b f D t s x =.A J Q T Y ` &.&.*.$.H x D b d : - * $ @ ",
". . . . . . . . . . . + @ # % * = > : / 3 +.b f w t -.q ;.L P W X &.&.#.Z S G o D c 4 : - & $ @ ",
". . . . . . . . . . . + + @ $ & * - , _ / 3 +.u f g j p ;.L >.W *.#.#.*.V N M o f +./ , = & $ @ ",
". . . . . . . . . . . . + @ # % & = ; : _ 4 2 c 0 E j p C %.>.V Z *.*...$.H y t e 2 ( > * % # @ ",
". . . . . . . . . . . . + + @ $ % * - > : / } l 0 E j p ;.%.O V ....V $.N M o D b d : ; * % # + ",
". . . . . . . . . . . . . + @ # % * = > ! ^ } 7 0 g ,.p M H O $.V V S N G x t e 2 / , = & $ @ + ",
". . . . . . . . . . . . . + @ # $ & = ' ~ ^ | 7 a h o F M H N O S O I G F n f c d : ; * % # @ + ",
". . . . . . . . . . . . . + @ # $ & = ) ~ 6 1 9 w t o y M G I I I G M F s w b 3 ( , = * $ # + . ",
". . . . . . . . . . . . . + @ # % * = v { [ l e D n x y M G G G M y o n w u 2 / : ; * % # @ + . ",
". . . . . . . . . . . . . + @ # % * - ! ] } b f m o x y z M z y x o t f b 2 / : ; * & $ @ + . . ",
". . . . . . . . . . . . . + @ $ & * ' ~ 6 1 u w t o x F y F x o n D f c 2 / : > = & $ # @ + . . ",
". . . . . . . . . . . . . + # $ & = ) { [ l e D n o x x x o s m w u +.3 / : ; = * % # @ + . . . ",
". . . . . . . . . . . . + @ # % * - : / 2 b f m s o o o s t D f b 2 d ( : ; = & % # @ + . . . . ",
". . . . . . . . . . . . + @ $ & * ; : 4 2 u w t s o o s t w f c 2 4 _ , - * & $ # @ + . . . . . ",
". . . . . . . . . . . . + # $ * = , _ } c f D t s s s t D f c 2 / : > - * & $ # @ + . . . . . . ",
". . . . . . . . . . . + @ # % * - ! ^ | 8 '.m n s s n D f b 2 4 : > - * & $ # @ + . . . . . . . ",
". . . . . . . . . . . + @ $ & = ) { [ l 0 g j s o s t w e +.d _ , - * & $ # @ + . . . . . . . . ",
". . . . . . . . . . . + # $ * < v ] } 8 '.h ,.o o s t w u 2 / : ; * & $ # @ + . . . . . . . . . ",
". . . . . . . . . . + @ # % * ' ! 6 1 0 g j -.o o o t f b 3 ( , - * % # @ + . . . . . . . . . . ",
". . . . . . . . . . + @ # & * ) { [ 7 a h -.p x x o t f c 3 _ > = & $ @ + . . . . . . . . . . . ",
". . . . . . . . . . + @ $ & = ) ] } 8 '.i r x F x o m f c d _ > * & # @ + . . . . . . . . . . . ",
". . . . . . . . . . + @ $ & = , ] | 8 E j o F F x s m f +.4 : ; * % # @ + . . . . . . . . . . . ",
". . . . . . . . . . + @ $ & = , ( 3 b f t o x x o n D u 2 / : - * % # + . . . . . . . . . . . . ",
". . . . . . . . . . + @ $ & = ).).3 c f m n o o s m f b 3 ( , = & $ @ + . . . . . . . . . . . . ",
". . . . . . . . . . + @ $ & * ).).4 2 u f m t t m f u 2 4 : > * & $ @ + . . . . . . . . . . . . ",
". . . . . . . . . . + @ # % * ).).( 3 +.u f f f f u +.3 ( : - * % # @ + . . . . . . . . . . . . ",
". . . ).).. ).).. ).+ ).).$ * ).).: ).).+.).b ).).2 3 / ).).).& $ ).).. ).).. ).. ).).. . . . . ",
". . . ).).. ).).. ).).+ ).).% ).).).)./ d ).).2 ).).( ).).= ).).# ).).).).).. ).).. ).).. . . . ",
". . . ).).. ).).. ).).+ ).).$ ).).).> : _ ).).( ).).: ).).* ).).@ ).).).).).. ).).. ).).. . . . ",
". . . ).).. ).).. ).).. ).).# ).).).).; > ).)., ).).- ).).% ).).@ ).).).).).. ).).. ).).. . . . ",
". . . . ).).. ).. ).).. ).).@ ).).% ).).= ).).- ).).* & ).).).@ + . ).. ).. . ).).. ).).. . . . ",
". . . . . . . . . . . . . + + @ # $ $ % & & * * & & % $ # @ @ + . . . . . . . . . . . . . . . . ",
". . . . . . . . . . . . . . + + @ @ # # $ $ $ $ $ $ # # @ + + . . . . . . . . . . . . . . . . . "};
