/* XPM */
static char * tools_xpm[] = {
"48 48 689 2",
"  	c None",
". 	c #000000",
"+ 	c #A5A5A5",
"@ 	c #7A7A7A",
"# 	c #D1D1D1",
"$ 	c #5E5E5E",
"% 	c #F4F4F4",
"& 	c #F3F3F3",
"* 	c #F2F2F2",
"= 	c #F1F1F1",
"- 	c #F0F0F0",
"; 	c #EFEFEF",
"> 	c #EEEEEE",
", 	c #EDEDED",
"' 	c #ECECEC",
") 	c #EBEBEB",
"! 	c #9E9E9E",
"~ 	c #030200",
"{ 	c #EAEAEA",
"] 	c #0A0A0A",
"^ 	c #313131",
"/ 	c #383838",
"( 	c #302F2F",
"_ 	c #0A0907",
": 	c #020100",
"< 	c #070707",
"[ 	c #2F2F2F",
"} 	c #2C2C2C",
"| 	c #353535",
"1 	c #303030",
"2 	c #202020",
"3 	c #0C0C0C",
"4 	c #111111",
"5 	c #494949",
"6 	c #1F1F1F",
"7 	c #050505",
"8 	c #151515",
"9 	c #090909",
"0 	c #191919",
"a 	c #212121",
"b 	c #131313",
"c 	c #141414",
"d 	c #060606",
"e 	c #1D1D1D",
"f 	c #010101",
"g 	c #161616",
"h 	c #020500",
"i 	c #010200",
"j 	c #010100",
"k 	c #2B2B2B",
"l 	c #4C4C4C",
"m 	c #1B1B1B",
"n 	c #1C1B1B",
"o 	c #4E4E4C",
"p 	c #4D4D4C",
"q 	c #030303",
"r 	c #1C1C1C",
"s 	c #040404",
"t 	c #0E0D0D",
"u 	c #474243",
"v 	c #504C4D",
"w 	c #3B3839",
"x 	c #040303",
"y 	c #323232",
"z 	c #151414",
"A 	c #010001",
"B 	c #020001",
"C 	c #122100",
"D 	c #0B1400",
"E 	c #060900",
"F 	c #0D0E0B",
"G 	c #0A0A07",
"H 	c #111007",
"I 	c #252214",
"J 	c #191814",
"K 	c #0B0B0B",
"L 	c #080808",
"M 	c #343434",
"N 	c #1E1E1E",
"O 	c #0E0E0E",
"P 	c #3A3A3A",
"Q 	c #252525",
"R 	c #262626",
"S 	c #0D0304",
"T 	c #401113",
"U 	c #3A1416",
"V 	c #240F11",
"W 	c #0A0102",
"X 	c #100D0D",
"Y 	c #0B0507",
"Z 	c #0E0006",
"` 	c #16000B",
" .	c #324920",
"..	c #3D5D27",
"+.	c #406327",
"@.	c #3C5623",
"#.	c #3E4923",
"$.	c #433C23",
"%.	c #4A3123",
"&.	c #512D23",
"*.	c #563127",
"=.	c #553A2F",
"-.	c #302622",
";.	c #191410",
">.	c #110C06",
",.	c #292826",
"'.	c #292929",
").	c #272727",
"!.	c #2E2E2E",
"~.	c #121212",
"{.	c #201818",
"].	c #1A0705",
"^.	c #3E2218",
"/.	c #484123",
"(.	c #475328",
"_.	c #3E4F24",
":.	c #404523",
"<.	c #443B23",
"[.	c #4A3023",
"}.	c #532924",
"|.	c #582B2C",
"1.	c #583137",
"2.	c #4C3238",
"3.	c #331C28",
"4.	c #203910",
"5.	c #3E5D32",
"6.	c #61934B",
"7.	c #7DBE58",
"8.	c #7FB351",
"9.	c #8C9E50",
"0.	c #9A8750",
"a.	c #A86E50",
"b.	c #B25F50",
"c.	c #B25E5B",
"d.	c #A4696D",
"e.	c #6A4F55",
"f.	c #423333",
"g.	c #25180F",
"h.	c #0A0603",
"i.	c #282726",
"j.	c #393939",
"k.	c #434343",
"l.	c #131010",
"m.	c #190B06",
"n.	c #332514",
"o.	c #445E36",
"p.	c #659A4D",
"q.	c #7DBC57",
"r.	c #7FB150",
"s.	c #8E9B50",
"t.	c #9C8450",
"u.	c #AA6C50",
"v.	c #B35D50",
"w.	c #B0605D",
"x.	c #9D666A",
"y.	c #634C52",
"z.	c #3D2937",
"A.	c #270E22",
"B.	c #0E1D00",
"C.	c #325623",
"D.	c #5E9F4F",
"E.	c #5DB34C",
"F.	c #69BC4F",
"G.	c #7ABB53",
"H.	c #85AB51",
"I.	c #939551",
"J.	c #A17E51",
"K.	c #AE6751",
"L.	c #B35956",
"M.	c #AE5465",
"N.	c #A1567C",
"O.	c #895088",
"P.	c #7B5681",
"Q.	c #685564",
"R.	c #251714",
"S.	c #130C09",
"T.	c #0D0D0D",
"U.	c #110F0F",
"V.	c #180404",
"W.	c #3D4826",
"X.	c #629C4F",
"Y.	c #5DB54C",
"Z.	c #6BBC50",
"`.	c #7BB952",
" +	c #87A951",
".+	c #959251",
"++	c #A37B51",
"@+	c #AF6451",
"#+	c #B35757",
"$+	c #AD5468",
"%+	c #9E567D",
"&+	c #864F89",
"*+	c #795681",
"=+	c #624D65",
"-+	c #1E0A1E",
";+	c #29002D",
">+	c #37003E",
",+	c #325426",
"'+	c #4A873F",
")+	c #66CB5A",
"!+	c #66CD53",
"~+	c #6FC451",
"{+	c #7DB551",
"]+	c #8BA351",
"^+	c #998D51",
"/+	c #A77551",
"(+	c #B45E51",
"_+	c #B2555C",
":+	c #AA516E",
"<+	c #9D5187",
"[+	c #8E519D",
"}+	c #8459A7",
"|+	c #765E9B",
"1+	c #4C4054",
"2+	c #2C1E1F",
"3+	c #1B0E09",
"4+	c #262524",
"5+	c #101010",
"6+	c #181818",
"7+	c #060704",
"8+	c #333B24",
"9+	c #538843",
"0+	c #66CB59",
"a+	c #66CD52",
"b+	c #71C251",
"c+	c #8DA151",
"d+	c #9B8A51",
"e+	c #A97251",
"f+	c #B55C52",
"g+	c #B2545E",
"h+	c #A95171",
"i+	c #9B5189",
"j+	c #8C51A0",
"k+	c #835BA7",
"l+	c #705994",
"m+	c #443854",
"n+	c #33143D",
"o+	c #2C0033",
"p+	c #162F00",
"q+	c #4B8342",
"r+	c #5FBC59",
"s+	c #5CD851",
"t+	c #68CC51",
"u+	c #75BE51",
"v+	c #83AE51",
"w+	c #919B51",
"x+	c #9F8451",
"y+	c #AD6C51",
"z+	c #B85652",
"A+	c #B15262",
"B+	c #A65177",
"C+	c #975190",
"D+	c #8951A5",
"E+	c #7B51B7",
"F+	c #7054BE",
"G+	c #6D649D",
"H+	c #4B3847",
"I+	c #32180F",
"J+	c #434140",
"K+	c #2C2A2A",
"L+	c #0C0F08",
"M+	c #4D844A",
"N+	c #5FC058",
"O+	c #5ED751",
"P+	c #6ACA51",
"Q+	c #77BC51",
"R+	c #84AB51",
"S+	c #929951",
"T+	c #A18151",
"U+	c #AE6951",
"V+	c #B85453",
"W+	c #B05265",
"X+	c #A4517A",
"Y+	c #965192",
"Z+	c #8751A8",
"`+	c #7951B9",
" @	c #6F56BA",
".@	c #6C6698",
"+@	c #3C2950",
"@@	c #1D0024",
"#@	c #0B1800",
"$@	c #419A3C",
"%@	c #5BD455",
"&@	c #60D451",
"*@	c #6CC751",
"=@	c #7AB851",
"-@	c #88A651",
";@	c #969251",
">@	c #A47A51",
",@	c #B06552",
"'@	c #B85354",
")@	c #AD5169",
"!@	c #9F5181",
"~@	c #915199",
"{@	c #8451AD",
"]@	c #7751BD",
"^@	c #6B52C8",
"/@	c #695AC5",
"(@	c #3E2E5E",
"_@	c #150603",
":@	c #0E0D0C",
"<@	c #0F0808",
"[@	c #181208",
"}@	c #4AA644",
"|@	c #5CD454",
"1@	c #61D251",
"2@	c #6EC551",
"3@	c #7CB651",
"4@	c #8AA451",
"5@	c #989051",
"6@	c #A67751",
"7@	c #B16252",
"8@	c #B85256",
"9@	c #AB516C",
"0@	c #9D5184",
"a@	c #8F519B",
"b@	c #8251AF",
"c@	c #7551BF",
"d@	c #6B53C8",
"e@	c #685BC4",
"f@	c #312458",
"g@	c #0E0013",
"h@	c #040900",
"i@	c #3D9D39",
"j@	c #5BD952",
"k@	c #65CF51",
"l@	c #71C151",
"m@	c #7FB151",
"n@	c #8E9F51",
"o@	c #9C8951",
"p@	c #A97151",
"q@	c #B25E54",
"r@	c #B5525C",
"s@	c #A85173",
"t@	c #9A518B",
"u@	c #8B51A2",
"v@	c #7E51B4",
"w@	c #7151C3",
"x@	c #6652CF",
"y@	c #5F55D6",
"z@	c #312A67",
"A@	c #110B09",
"B@	c #282827",
"C@	c #1E1A1A",
"D@	c #111307",
"E@	c #46AE40",
"F@	c #5CD752",
"G@	c #66CD51",
"H@	c #73C051",
"I@	c #81AF51",
"J@	c #909C51",
"K@	c #9E8651",
"L@	c #AB6E51",
"M@	c #B25C55",
"N@	c #B4515E",
"O@	c #A65176",
"P@	c #98518E",
"Q@	c #7D51B6",
"R@	c #7051C5",
"S@	c #6552D0",
"T@	c #5E55D7",
"U@	c #282159",
"V@	c #050008",
"W@	c #000100",
"X@	c #3C9A38",
"Y@	c #5DD650",
"Z@	c #77BB51",
"`@	c #85AA51",
" #	c #939751",
".#	c #A27F51",
"+#	c #AE6851",
"@#	c #B45856",
"##	c #B05165",
"$#	c #A3517D",
"%#	c #945194",
"&#	c #8551AB",
"*#	c #7851BB",
"=#	c #6C51C9",
"-#	c #6051D5",
";#	c #5652DD",
">#	c #28276B",
",#	c #131212",
"'#	c #333333",
")#	c #081307",
"!#	c #44AD3F",
"~#	c #5FD550",
"{#	c #6BC851",
"]#	c #78BA51",
"^#	c #87A851",
"/#	c #959451",
"(#	c #A37C51",
"_#	c #AF6551",
":#	c #B35758",
"<#	c #AF5167",
"[#	c #A15180",
"}#	c #935197",
"|#	c #7751BC",
"1#	c #6A51CA",
"2#	c #5F52D6",
"3#	c #5452DF",
"4#	c #212058",
"5#	c #000001",
"6#	c #409738",
"7#	c #62D250",
"8#	c #7CB551",
"9#	c #998E51",
"0#	c #B36051",
"a#	c #B65259",
"b#	c #AC516E",
"c#	c #9D5186",
"d#	c #7F51B1",
"e#	c #7351C0",
"f#	c #6752CD",
"g#	c #5D53D9",
"h#	c #5352E0",
"i#	c #27276C",
"j#	c #091307",
"k#	c #48AA3F",
"l#	c #64D050",
"m#	c #70C351",
"n#	c #7EB351",
"o#	c #8CA051",
"p#	c #9A8A51",
"q#	c #A87251",
"r#	c #B45D51",
"s#	c #AA5171",
"t#	c #8C519F",
"u#	c #7E51B3",
"v#	c #7151C1",
"w#	c #5C53DA",
"x#	c #5252E1",
"y#	c #1F2059",
"z#	c #47943A",
"A#	c #69CB53",
"B#	c #73BF51",
"C#	c #82AF51",
"D#	c #909A51",
"E#	c #9E8451",
"F#	c #AB6D51",
"G#	c #B35B54",
"H#	c #B25160",
"I#	c #97518F",
"J#	c #6E51C5",
"K#	c #6352D2",
"L#	c #5953DC",
"M#	c #5854DD",
"N#	c #30296A",
"O#	c #110808",
"P#	c #222121",
"Q#	c #1B1617",
"R#	c #131208",
"S#	c #50A442",
"T#	c #6ACA53",
"U#	c #75BD51",
"V#	c #84AD51",
"W#	c #929851",
"X#	c #A08151",
"Y#	c #AD6A51",
"Z#	c #B45955",
"`#	c #B15163",
" $	c #955192",
".$	c #8751A7",
"+$	c #6D51C7",
"@$	c #6152D3",
"#$	c #5755DD",
"$$	c #25215D",
"%$	c #05000A",
"&$	c #0F1700",
"*$	c #4E8A40",
"=$	c #6FBC57",
"-$	c #79B951",
";$	c #B06451",
">$	c #B35759",
",$	c #AE5168",
"'$	c #A05181",
")$	c #915198",
"!$	c #8351AC",
"~$	c #7651BE",
"{$	c #6A51CB",
"]$	c #5E52D7",
"^$	c #5654DD",
"/$	c #5E58CE",
"($	c #3C2B61",
"_$	c #170100",
":$	c #030000",
"<$	c #D3D3D3",
"[$	c #0C0002",
"}$	c #22100B",
"|$	c #589448",
"1$	c #70BC57",
"2$	c #7BB751",
"3$	c #89A651",
"4$	c #978F51",
"5$	c #A57851",
"6$	c #B26151",
"7$	c #B3565A",
"8$	c #AC516B",
"9$	c #9E5184",
"0$	c #90519B",
"a$	c #6851CD",
"b$	c #5D52D8",
"c$	c #5754DB",
"d$	c #5F59CC",
"e$	c #2E235E",
"f$	c #0D0019",
"g$	c #1C2A00",
"h$	c #537249",
"i$	c #729F5F",
"j$	c #B65B51",
"k$	c #B3535E",
"l$	c #6452D0",
"m$	c #5455DA",
"n$	c #655DA9",
"o$	c #4D2F4B",
"p$	c #330300",
"q$	c #D2D2D2",
"r$	c #360D10",
"s$	c #5E7253",
"t$	c #74A25D",
"u$	c #81B051",
"v$	c #8F9E51",
"w$	c #9D8751",
"x$	c #AB6F51",
"y$	c #B85851",
"z$	c #B25360",
"A$	c #A85174",
"B$	c #9A518C",
"C$	c #8A51A3",
"D$	c #7C51B5",
"E$	c #6F51C5",
"F$	c #6353D2",
"G$	c #5853DD",
"H$	c #5756D4",
"I$	c #675EA3",
"J$	c #392559",
"K$	c #1A002E",
"L$	c #324124",
"M$	c #546942",
"N$	c #85A065",
"O$	c #929555",
"P$	c #AE6A51",
"Q$	c #B75653",
"R$	c #B05264",
"S$	c #A3517B",
"T$	c #955193",
"U$	c #7A51B9",
"V$	c #6D51C8",
"W$	c #6051D4",
"X$	c #6157D2",
"Y$	c #6357B6",
"Z$	c #453155",
"`$	c #3B1C2A",
" %	c #3B322B",
".%	c #5E6A49",
"+%	c #869F63",
"@%	c #949453",
"#%	c #A27E51",
"$%	c #AF6752",
"%%	c #AE5267",
"&%	c #A1517E",
"*%	c #935196",
"=%	c #8651AA",
"-%	c #6B51CA",
";%	c #5F51D6",
">%	c #6258D0",
",%	c #5D52AD",
"'%	c #382B57",
")%	c #2A1842",
"!%	c #121600",
"~%	c #3A4128",
"{%	c #6A7254",
"]%	c #7E764E",
"^%	c #987051",
"/%	c #B06457",
"(%	c #B65458",
"_%	c #AC516C",
":%	c #8F519C",
"<%	c #8251AE",
"[%	c #7852BD",
"}%	c #6F53C6",
"|%	c #5B4CBB",
"1%	c #594AA0",
"2%	c #5A4376",
"3%	c #2E121E",
"4%	c #D0D0D0",
"5%	c #CFCFCF",
"6%	c #1C0007",
"7%	c #473C34",
"8%	c #6E6D56",
"9%	c #81764E",
"0%	c #9C6F52",
"a%	c #B16257",
"b%	c #B75158",
"c%	c #AA516F",
"d%	c #9C5187",
"e%	c #8D519F",
"f%	c #8151B0",
"g%	c #7752BE",
"h%	c #6C53C5",
"i%	c #584CB9",
"j%	c #5849A0",
"k%	c #4F3D79",
"l%	c #180828",
"m%	c #21200A",
"n%	c #443C36",
"o%	c #7D5554",
"p%	c #B06264",
"q%	c #B25261",
"r%	c #A75074",
"s%	c #99508D",
"t%	c #8950A5",
"u%	c #7E4FB3",
"v%	c #7A53BC",
"w%	c #7A59BC",
"x%	c #544376",
"y%	c #392537",
"z%	c #270807",
"A%	c #CECECE",
"B%	c #220610",
"C%	c #2A1119",
"D%	c #493D3D",
"E%	c #865857",
"F%	c #B16064",
"G%	c #B25061",
"H%	c #A55077",
"I%	c #975090",
"J%	c #8850A7",
"K%	c #7C4FB5",
"L%	c #7A54BD",
"M%	c #7556B3",
"N%	c #4F406E",
"O%	c #2D1E40",
"P%	c #160426",
"Q%	c #D6D6D6",
"R%	c #382D16",
"S%	c #452F1E",
"T%	c #4E2C24",
"U%	c #472123",
"V%	c #3F1E2A",
"W%	c #371D33",
"X%	c #311D3C",
"Y%	c #311D41",
"Z%	c #372044",
"`%	c #422443",
" &	c #431D29",
".&	c #3C1619",
"+&	c #CDCDCD",
"@&	c #3C172A",
"#&	c #481F2E",
"$&	c #4D232D",
"%&	c #461D27",
"&&	c #3D1D2C",
"*&	c #361D34",
"=&	c #311D3D",
"-&	c #301D45",
";&	c #331E4F",
">&	c #381F55",
",&	c #311748",
"'&	c #270F3A",
")&	c #312500",
"!&	c #261B00",
"~&	c #170E00",
"{&	c #0B0600",
"]&	c #040200",
"^&	c #070100",
"/&	c #120300",
"(&	c #210600",
"_&	c #390800",
":&	c #35001E",
"<&	c #260017",
"[&	c #15000E",
"}&	c #090006",
"|&	c #030002",
"1&	c #040006",
"2&	c #0C0011",
"3&	c #150020",
"4&	c #210035",
"5&	c #CACACA",
"6&	c #CCCCCC",
"7&	c #CBCBCB",
"8&	c #C9C9C9",
"9&	c #C8C8C8",
"0&	c #C7C7C7",
"a&	c #C6C6C6",
"b&	c #C5C5C5",
"c&	c #C4C4C4",
"d&	c #C3C3C3",
"e&	c #C2C2C2",
"f&	c #C1C1C1",
"                                                                                                ",
"      . . . . . . . . . . . . . . . . . . . . .                                                 ",
"      . + + + + + + + + + + + + + + + + + + + .                                                 ",
"      . + @ @ @ @ @ + + @ @ @ @ @ + + @ @ @ + .                                                 ",
"      . # # + # # + # # # + # # # + # # + # # .                                                 ",
"      . $ $ $ $ $ $ $ $ $ $ $ $ $ $ $ $ $ $ $ .                                                 ",
"      . + + @ + @ + + @ + + + + + + + + + + + .                                                 ",
"      . $ $ $ $ $ $ $ $ $ $ $ $ $ $ $ $ $ $ $ .                                                 ",
"      . + + + + + @ @ @ + + + + + + + + + + + .                                                 ",
"      . + + + @ @ + + + + @ @ @ @ + + + + + + .                                                 ",
"      . $ $ $ $ $ $ $ $ $ $ $ $ $ $ $ $ $ $ $ .                                                 ",
"      . % % & & * * = = - - ; > > , , ' ' ) ) .                                                 ",
"      . & & * * ! ! ! ! ; > > , , ! . . ~ ! { .         . . .                                   ",
"      . * ! ! ! ! ! ! ! ! ! ! . . ] ^ / ( _ : .     . < [ / ^ ] . .                             ",
"      . = ! ! ! ! ! ! ! ' ' ! . . < } | 1 2 3 .   . 3 2 1 | } < . .                             ",
"      . ; ; > > , , ' ' . . . . . . . . 4 5 6 .   . 6 5 4 . . . . . . . .                       ",
"      . > ! ! ! ! ! . . . . . . . . . . 7 8 9 . . . 9 8 7 . . . . . . . . . .                   ",
"      . , ! ! ! ! 0 a a 3 3 a a b . . . . . c a a ] . . . . d e a 0 f g a 2 9 .                 ",
"      . ' ) h i j k l l m n o p k f 7 q f d ^ l l r s f 7 q t u v w x y l 5 z A B               ",
"      . ! ! C D E F c c G H I J K L M N O P Q c c y R 7 ^ a S T U V W X c b Y Z `               ",
"      . !  ...+.@.#.$.%.&.*.=.-.;.>.,.'.).!.~.. . 2 k Q } {.].^./.(._.:.<.[.}.|.1.2.3.          ",
"      . 4.5.6.7.8.9.0.a.b.c.d.e.f.g.h.i.j.d . . . . e k.l.m.n.o.p.q.r.s.t.u.v.w.x.y.z.A.        ",
"    B.C.D.E.F.G.H.I.J.K.L.M.N.O.P.Q.R.S.T.f . . . . d U.V.W.X.Y.Z.`. +.+++@+#+$+%+&+*+=+-+;+>+  ",
"    ,+'+)+!+~+{+]+^+/+(+_+:+<+[+}+|+1+2+3+4+5+. . r 6+7+8+9+0+a+b+8.c+d+e+f+g+h+i+j+k+l+m+n+o+  ",
"  p+q+r+s+t+u+v+w+x+y+z+A+B+C+D+E+F+G+H+I+J+m . . ^ K+L+M+N+O+P+Q+R+S+T+U+V+W+X+Y+Z+`+ @.@+@@@  ",
"  #@$@%@&@*@=@-@;@>@,@'@)@!@~@{@]@^@/@(@_@:@7 . . 9 <@[@}@|@1@2@3@4@5@6@7@8@9@0@a@b@c@d@e@f@g@  ",
"  h@i@j@k@l@m@n@o@p@q@r@s@t@u@v@w@x@y@z@A@B@4 . . N C@D@E@F@G@H@I@J@K@L@M@N@O@P@D+Q@R@S@T@U@V@  ",
"  W@X@Y@P+Z@`@ #.#+#@###$#%#&#*#=#-#;#>#,#l 2 . . P '#)#!#~#{#]#^#/#(#_#:#<#[#}#{@|#1#2#3#4#5#  ",
"  W@6#7#2@8#]+9#/+0#a#b#c#[+d#e#f#g#h#i#,#l 2 . . P '#j#k#l#m#n#o#p#q#r#r@s#i+t#u#v#x@w#x#y#5#  ",
"  E z#A#B#C#D#E#F#G#H#B+I#D+E+J#K#L#M#N#O#P#g .   6 Q#R#S#T#U#V#W#X#Y#Z#`#X+ $.$`++$@$L##$$$%$  ",
"  &$*$=$-$^#;@++;$>$,$'$)$!$~${$]$^$/$($_$:$<$.   . [$}$|$1$2$3$4$5$6$7$8$9$0$b@c@a$b$c$d$e$f$  ",
"  g$h$i$8.c+d+e+j$k$h+i+j+u#w@l$L#m$n$o$p$q$q$.       r$s$t$u$v$w$x$y$z$A$B$C$D$E$F$G$H$I$J$K$  ",
"    L$M$N$O$T+P$Q$R$S$T$Z+U$V$W$X$Y$Z$`$q$# # .          %.%+%@%#%$%V+%%&%*%=%*#-%;%>%,%'%)%    ",
"    !%~%{%]%^%/%(%_%0@:%<%[%}%|%1%2%3%! 4%4%5%.         6%7%8%9%0%a%b%c%d%e%f%g%h%i%j%k%l%      ",
"      . m%n%o%p%q%r%s%t%u%v%w%x%y%z%4%4%5%5%A%.           B%C%D%E%F%G%H%I%J%K%L%M%N%O%P%        ",
"      . Q%R%S%T%U%V%W%X%Y%Z%`% &.&4%5%A%A%+&+&.               @&#&$&%&&&*&=&-&;&>&,&'&          ",
"      . ! )&!&~&{&]&. . ^&/&(&_&! ! ! ! ! ! ! .               :&<&[&}&|&. . 1&2&3&4&            ",
"      . ! <$! ! ! ! ! ! ! ! ! ! ! ! ! ! ! ! 5&.                                                 ",
"      . <$q$q$# # 4%4%5%A%A%+&+&6&6&7&7&5&5&8&.                                                 ",
"      . q$# 4%4%5%5%A%A%+&+&6&6&7&5&5&8&8&9&9&.                                                 ",
"      . ! ! ! ! ! ! ! ! ! ! ! ! ! ! ! ! ! ! 0&.                                                 ",
"      . ! ! ! ! ! ! ! ! ! ! ! ! ! ! ! ! ! a&b&.                                                 ",
"      . A%+&+&6&6&7&5&5&8&8&9&9&0&0&a&a&b&b&c&.                                                 ",
"      . ! ! ! ! ! ! ! 8&9&9&0&! ! ! ! ! ! d&d&.                                                 ",
"      . ! ! ! ! 8&8&! ! ! ! ! ! ! c&c&d&d&e&e&.                                                 ",
"      . 5&8&8&9&9&0&0&a&a&b&b&c&c&d&e&e&f&f&f&.                                                 ",
"      . . . . . . . . . . . . . . . . . . . . .                                                 ",
"                                                                                                "};
